<svg width="400" height="400" viewBox="0 0 400 400" fill="none" xmlns="http://www.w3.org/2000/svg">
<path d="M330 95H70C58.9543 95 50 86.0457 50 75V70C50 58.9543 58.9543 50 70 50H330C341.046 50 350 58.9543 350 70V75C350 86.0457 341.046 95 330 95Z" fill="#F5F3EE"/>
<path d="M125 255V145C125 133.954 133.954 125 145 125H330C341.046 125 350 133.954 350 145V150C350 161.046 341.046 170 330 170H190C178.954 170 170 178.954 170 190V255C170 266.046 161.046 275 150 275H145C133.954 275 125 266.046 125 255Z" fill="#F5F3EE"/>
<path d="M286 220V215C286 203.954 277.046 195 266 195H220C208.954 195 200 203.954 200 215V220C200 231.046 208.954 240 220 240H266C277.046 240 286 231.046 286 220Z" fill="#F5F3EE"/>
<path d="M330 350H70C58.9543 350 50 341.046 50 330V145C50 133.954 58.9543 125 70 125H75C86.0457 125 95 133.954 95 145V285C95 296.046 103.954 305 115 305H330C341.046 305 350 313.954 350 325V330C350 341.046 341.046 350 330 350Z" fill="#F5F3EE"/>
</svg>
